<mxfile host="app.diagrams.net" modified="2023-04-18T03:11:46.101Z" agent="Mozilla/5.0 (Windows NT 10.0; Win64; x64) AppleWebKit/537.36 (KHTML, like Gecko) Chrome/106.0.0.0 Safari/537.36" version="21.1.8" etag="6eSK3T3QB_zXlquv3-IV" type="github">
  <diagram name="第 1 页" id="k7-4ZJ-VW3ZBySJLqkeN">
    <mxGraphModel>
      <root>
        <mxCell id="0" />
        <mxCell id="1" parent="0" />
      </root>
    </mxGraphModel>
  </diagram>
</mxfile>
